inDegrees=no
num_controls=7
num_derivatives=13
num_iterations=168
num_multipliers=7
num_parameters=0
num_slacks=7
num_states=26
objective=0.500310
objective_accelerations=0.037074
objective_balance=0.003337
objective_effort=0.036249
objective_height=0.417573
objective_ligament=0.006077
solver_duration=1940.974187
status=Solve_Succeeded
success=true
DataType=double
version=3
OpenSimVersion=4.5
endheader
time	/jointset/ground_pelvis/pelvis_tilt/value	/jointset/ground_pelvis/pelvis_tx/value	/jointset/ground_pelvis/pelvis_ty/value	/jointset/hip_r/hip_flexion_r/value	/jointset/hip_r/hip_adduction_r/value	/jointset/hip_r/hip_rotation_r/value	/jointset/back/lumbar_extension/value	/jointset/patellofemoral_r/patellar_flexion_r/value	/jointset/knee_r/knee_flexion_r/value	/jointset/knee_r/knee_adduction_r/value	/jointset/knee_r/knee_rotation_r/value	/jointset/ankle_r/ankle_angle_r/value	/jointset/subtalar_r/subtalar_angle_r/value	/jointset/ground_pelvis/pelvis_tilt/speed	/jointset/ground_pelvis/pelvis_tx/speed	/jointset/ground_pelvis/pelvis_ty/speed	/jointset/hip_r/hip_flexion_r/speed	/jointset/hip_r/hip_adduction_r/speed	/jointset/hip_r/hip_rotation_r/speed	/jointset/back/lumbar_extension/speed	/jointset/patellofemoral_r/patellar_flexion_r/speed	/jointset/knee_r/knee_flexion_r/speed	/jointset/knee_r/knee_adduction_r/speed	/jointset/knee_r/knee_rotation_r/speed	/jointset/ankle_r/ankle_angle_r/speed	/jointset/subtalar_r/subtalar_angle_r/speed	/forceset/tau_hip_flexion_r	/forceset/tau_hip_adduction_r	/forceset/tau_hip_rotation_r	/forceset/tau_knee_flexion_r	/forceset/tau_ankle_angle_r	/forceset/tau_subtalar_angle_r	/forceset/tau_lumbar_extension	lambda_cid13_p0	lambda_cid14_p0	lambda_cid14_p1	lambda_cid14_p2	lambda_cid14_p3	lambda_cid14_p4	lambda_cid14_p5	/jointset/ground_pelvis/pelvis_tilt/accel	/jointset/ground_pelvis/pelvis_tx/accel	/jointset/ground_pelvis/pelvis_ty/accel	/jointset/hip_r/hip_flexion_r/accel	/jointset/hip_r/hip_adduction_r/accel	/jointset/hip_r/hip_rotation_r/accel	/jointset/back/lumbar_extension/accel	/jointset/patellofemoral_r/patellar_flexion_r/accel	/jointset/knee_r/knee_flexion_r/accel	/jointset/knee_r/knee_adduction_r/accel	/jointset/knee_r/knee_rotation_r/accel	/jointset/ankle_r/ankle_angle_r/accel	/jointset/subtalar_r/subtalar_angle_r/accel	gamma_cid13_p0	gamma_cid14_p0	gamma_cid14_p1	gamma_cid14_p2	gamma_cid14_p3	gamma_cid14_p4	gamma_cid14_p5
1	-0.1890075311268883	0.03244930801840674	0.7369519623097137	1.14065771836305	-0.2519582941906566	0.002922628138617216	-0.4362401728543795	1.19945114937886	1.199451149379069	0.05366367414559408	0.1745144304027867	0.4363253722310043	0.07530600163247363	-0.001432848270348304	0.005677335647362739	0.01346589264705654	-0.03855260120091339	0.0007286794294333715	-0.01372857644732198	0.008486979558430996	-0.04649911080215756	-0.0464991108021581	-0.001966364533197123	-0.0002757784857657542	-0.008151363202703618	-0.00121530309600874	-0.2031073305212689	0.01384102681555664	0.02155526532483718	-0.4724387386690796	-0.02111233032898072	0.003921751603788054	0.2490353678006909	-1.878169936251795	-54.39608032368574	-7.271918395171703	0.9919644994538804	16.00891946624307	-779.3017820821198	63.5351841246458	0.9244232388503282	0.09883564818981912	1.359684232912996	-4.25452043931886	0.05184841089361264	-1.159056896146822	0.4429336779481062	-4.62127667615542	-4.62127667615545	0.04306853142861312	-0.01505187713928793	-1.496472044675872	-0.3948764408671085	-3.043005775691426e-10	-4.803812370578508e-09	-2.594168113221409e-09	-4.219112602429003e-09	8.482445825358758e-09	-5.754497267774705e-09	-5.185743026746735e-09
1.01	-0.1889766819741991	0.03251104497302348	0.7371544476305586	1.140060680725596	-0.2519483577671539	0.00272715585376069	-0.4361312279275855	1.198755220894302	1.198755220894283	0.0536458362047964	0.1745109528977891	0.436169012227045	0.07527420230434255	0.007561159418555524	0.006674598898296673	0.02702863171474631	-0.08082392468158622	0.001258682428841894	-0.02536600272416044	0.0134249355751909	-0.09270481800254768	-0.09270481800254932	-0.001594749223579729	-0.0004171182041238425	-0.02312944311620709	-0.005146680905703961	-0.2039569792371468	0.01410391124405213	0.0215493277389493	-0.4713938068631554	-0.02250894137363839	0.004070614529803154	0.2498021955066208	-1.899729072081718	-54.85287788049921	-7.27663535300449	0.9805927863459639	16.27500162390704	-779.5870101903394	63.46139964391498	0.8806617355463441	0.1008545310005508	1.354185985326447	-4.208788192709342	0.05358640143810398	-1.166105329770331	0.5376660295399273	-4.622952381113105	-4.622952381113229	0.03517962411522767	-0.01328672573261714	-1.499797243639	-0.3925875869717574	-7.196887215868236e-10	-4.560730088384841e-09	-9.220959235736982e-10	-1.107079004889363e-08	6.638683621052932e-09	-8.904637473957351e-09	-3.085266734337483e-09
1.02	-0.1888571383042951	0.03258289113364062	0.7374924837904065	1.13904185987528	-0.2519331192822631	0.002415305338877553	-0.4359692155474188	1.197596688409912	1.19759668840967	0.05363190873577243	0.1745061396543076	0.4358626071681517	0.07520302537092431	0.01630605517289672	0.007699176847446245	0.04057606044761712	-0.1229092437729746	0.001789091707188642	-0.03700422245371696	0.01910047023195112	-0.13901991076823	-0.1390199107682319	-0.001184270178487209	-0.0005429261844228771	-0.03816037418776663	-0.009090824153440183	-0.204806627953039	0.01436679567256754	0.02154339015302809	-0.4703488750572314	-0.02390555241828762	0.004219477455855821	0.250569023212535	-1.935955848670012	-55.32045150514554	-7.280155818345736	0.9655088344090924	16.5596227642762	-780.0448468625104	63.3961543628544	0.8746008519377727	0.1042985878329813	1.356622165949203	-4.217319561461984	0.05192966668124731	-1.15921558669044	0.590449405948118	-4.643153789213857	-4.643153789213725	0.05084127852364818	-0.01194552952745531	-1.507042276287034	-0.397429528475309	-1.161541603435685e-09	-5.970490769866297e-09	-3.48621776431858e-09	-1.645723527636677e-08	8.571014886118004e-09	-1.162690338629858e-08	-7.157279566152758e-09
1.03	-0.188651323256982	0.03266517294302708	0.7379658663211666	1.137603078995384	-0.2519125645062172	0.001987107181640723	-0.4357468054839093	1.195974571115814	1.195974571115678	0.05362228440225051	0.1745001464547125	0.4354057220231584	0.0750924028882244	0.02481968101004714	0.008767080417593432	0.0540924631067954	-0.1648168054584051	0.00232322595737144	-0.04863075716050598	0.02550324516990759	-0.1854104240452752	-0.1854104240452747	-0.0007333460063205175	-0.0006540870883363904	-0.053216229093084	-0.01302943308416516	-0.2053260011952354	0.01453732963587897	0.02152976842906251	-0.4692243686186197	-0.02476236361697727	0.004303474240794131	0.251085340897467	-1.987272160880859	-55.59055871441705	-7.276733032625537	0.948701100426752	16.65604540143164	-780.1029739856529	63.31497370818505	0.8341525265605716	0.1095226701712382	1.347949040829643	-4.172955780220994	0.05435677242540435	-1.163677413710924	0.683446942577731	-4.638031172587973	-4.638031172587672	0.0433060199271091	-0.01046230886793909	-1.504793754661491	-0.3914441317009385	-1.603664533629764e-09	-7.397117195875058e-09	-6.093566074761371e-09	-2.182872915466652e-08	1.054187771719709e-08	-1.434480323441693e-08	-1.129227698086832e-08
1.04	-0.1883614901359069	0.03275843107382816	0.738574172823504	1.135746126237011	-0.2518866280940219	0.001442782677131827	-0.4354567165900456	1.193888342473817	1.193888342473788	0.0536173869171256	0.1744930894584735	0.4347982909977085	0.07494252080495128	0.03310966992547539	0.009894441130368668	0.06756085476308321	-0.2065436194693313	0.002865418937092998	-0.06022949190880571	0.03263623630219806	-0.2318421803478453	-0.2318421803478427	-0.0002389004995984098	-0.0007556855140342727	-0.06826955027869711	-0.01694274426808409	-0.2058453744374027	0.01470786359920678	0.0215161467050491	-0.4680998621800039	-0.02561917481566333	0.004387471025762677	0.2516016585824241	-2.054261025278101	-55.87149437107387	-7.272003094787601	0.9280266236139298	16.77065806298401	-780.3347101740603	63.24281378843203	0.8298734675933098	0.1161900163586212	1.347019965371107	-4.181170026561143	0.05354141258898734	-1.153655594992593	0.736492644814887	-4.651402394318811	-4.651402394318761	0.05954554543474221	-0.01003303388430043	-1.506535532346136	-0.3923699791141079	-2.045074915051283e-09	-8.470257298171263e-09	-9.267379907603449e-09	-2.753585472127907e-08	1.184656060387915e-08	-1.684346489209046e-08	-1.539274463104039e-08
